HIERARCHY
ROOT Hips
{
	OFFSET 0.0000 0.0000 0.0000
	CHANNELS 6 Xposition Yposition Zposition Zrotation Xrotation Yrotation
	JOINT Spine1
	{
		OFFSET -0.0137 5.0038 -0.0537
		CHANNELS 3 Zrotation Xrotation Yrotation
		JOINT Spine2
		{
			OFFSET -0.0000 7.1253 -0.0298
			CHANNELS 3 Zrotation Xrotation Yrotation
			JOINT Chest
			{
				OFFSET -0.0000 7.5501 -0.8160
				CHANNELS 3 Zrotation Xrotation Yrotation
				JOINT Neck1
				{
					OFFSET -0.1817 26.3113 -0.5533
					CHANNELS 3 Zrotation Xrotation Yrotation
					JOINT Neck2
					{
						OFFSET -0.0000 7.7094 2.3026
						CHANNELS 3 Zrotation Xrotation Yrotation
						JOINT Head
						{
							OFFSET -0.0000 6.1289 1.9537
							CHANNELS 3 Zrotation Xrotation Yrotation
							JOINT Jaw
							{
								OFFSET 0.0026 0.4756 3.0949
								CHANNELS 3 Zrotation Xrotation Yrotation
								End Site
								{
									OFFSET 0.0 1.0 0.0
								}
							}
							JOINT LeftEye
							{
								OFFSET 3.2064 5.3802 7.5869
								CHANNELS 3 Zrotation Xrotation Yrotation
								End Site
								{
									OFFSET 0.0 1.0 0.0
								}
							}
							JOINT RightEye
							{
								OFFSET -3.2224 5.3619 7.5582
								CHANNELS 3 Zrotation Xrotation Yrotation
								End Site
								{
									OFFSET 0.0 1.0 0.0
								}
							}
						}
					}
				}
				JOINT LeftShoulder
				{
					OFFSET 1.6217 23.2372 5.1134
					CHANNELS 3 Zrotation Xrotation Yrotation
					JOINT LeftArm
					{
						OFFSET 14.9198 0.0000 -5.5023
						CHANNELS 3 Zrotation Xrotation Yrotation
						JOINT LeftForeArm
						{
							OFFSET 28.7393 0.0000 -0.0026
							CHANNELS 3 Zrotation Xrotation Yrotation
							JOINT LeftHand
							{
								OFFSET 27.0940 -0.0000 0.0026
								CHANNELS 3 Zrotation Xrotation Yrotation
								JOINT LeftHandThumbEnd
								{
									OFFSET 12.2686 -3.2202 4.8331
									CHANNELS 3 Zrotation Xrotation Yrotation
									End Site
									{
										OFFSET 0.0 1.0 0.0
									}
								}
								JOINT LeftHandMiddleEnd
								{
									OFFSET 19.0120 -0.3129 -0.0340
									CHANNELS 3 Zrotation Xrotation Yrotation
									End Site
									{
										OFFSET 0.0 1.0 0.0
									}
								}
							}
						}
					}
				}
				JOINT RightShoulder
				{
					OFFSET -1.3801 23.1803 5.2142
					CHANNELS 3 Zrotation Xrotation Yrotation
					JOINT RightArm
					{
						OFFSET -15.0372 0.0000 -5.5456
						CHANNELS 3 Zrotation Xrotation Yrotation
						JOINT RightForeArm
						{
							OFFSET -28.7366 0.0000 -0.0026
							CHANNELS 3 Zrotation Xrotation Yrotation
							JOINT RightHand
							{
								OFFSET -27.1336 -0.0000 0.0026
								CHANNELS 3 Zrotation Xrotation Yrotation
								JOINT RightHandThumbEnd
								{
									OFFSET -12.2642 -3.2115 4.8040
									CHANNELS 3 Zrotation Xrotation Yrotation
									End Site
									{
										OFFSET 0.0 1.0 0.0
									}
								}
								JOINT RightHandMiddleEnd
								{
									OFFSET -19.0006 -0.3066 -0.0316
									CHANNELS 3 Zrotation Xrotation Yrotation
									End Site
									{
										OFFSET 0.0 1.0 0.0
									}
								}
							}
						}
					}
				}
			}
		}
	}
	JOINT LeftLeg
	{
		OFFSET 10.0432 -8.4345 2.5957
		CHANNELS 3 Zrotation Xrotation Yrotation
		JOINT LeftShin
		{
			OFFSET -0.0000 -43.2218 -0.8029
			CHANNELS 3 Zrotation Xrotation Yrotation
			JOINT LeftFoot
			{
				OFFSET 0.0000 -42.1551 -3.4815
				CHANNELS 3 Zrotation Xrotation Yrotation
				JOINT LeftToeBase
				{
					OFFSET 0.0000 -5.0595 13.2315
					CHANNELS 3 Zrotation Xrotation Yrotation
					End Site
					{
						OFFSET 0.0 1.0 0.0
					}
				}
			}
		}
	}
	JOINT RightLeg
	{
		OFFSET -10.0473 -8.2953 2.6203
		CHANNELS 3 Zrotation Xrotation Yrotation
		JOINT RightShin
		{
			OFFSET 0.0000 -43.3622 -0.8056
			CHANNELS 3 Zrotation Xrotation Yrotation
			JOINT RightFoot
			{
				OFFSET 0.0000 -42.1174 -3.4784
				CHANNELS 3 Zrotation Xrotation Yrotation
				JOINT RightToeBase
				{
					OFFSET -0.0000 -5.0796 13.2842
					CHANNELS 3 Zrotation Xrotation Yrotation
					End Site
					{
						OFFSET 0.0 1.0 0.0
					}
				}
			}
		}
	}
}
MOTION
Frames: 10
Frame Time: 0.033333
-5.1253 97.5245 -0.0350 3.1162 6.8961 -0.2540 -0.5980 5.4629 -0.5235 -0.4830 -2.1672 0.1659 -2.2290 18.1213 -2.5804 11.2938 15.4515 -0.4974 -2.3295 -3.8368 -6.4027 4.0908 -11.1767 -9.4785 -0.0180 -0.0641 0.0510 0.7340 -10.3213 -3.7836 -0.7621 -10.3644 3.8903 -2.8056 16.5854 -0.2969 -63.8806 8.8961 -27.6478 1.6419 -0.5615 -125.9539 16.7461 49.5686 45.9150 -15.0484 11.4346 15.7511 -59.9924 1.6985 2.1669 -0.6080 16.6558 12.3612 68.4716 1.1700 -13.2380 2.6397 1.6502 107.4042 2.3651 33.2759 -35.3056 15.5243 7.0524 -15.8994 50.1049 -3.7685 -5.3620 5.0662 -12.2341 3.8051 -0.2437 44.0766 -0.7828 -11.1810 -2.7357 -7.0723 2.4971 -22.9401 -2.9419 -9.8296 -30.5115 -9.6236 0.2325 24.7138 0.4530 8.5729 -2.6012 -2.7834 -1.4284 -0.7665 0.9066
-5.5149 97.7181 1.4786 2.5645 7.5455 -0.0530 -0.0381 6.0754 -0.3884 -0.4096 -1.8572 0.3299 -1.6898 18.3579 -2.1903 11.4727 17.1037 -1.0294 -2.1066 -3.8698 -6.0968 4.2048 -10.2958 -9.2695 -0.0582 -0.0584 0.1022 0.6563 -10.3785 -3.7573 -0.7634 -10.4096 3.9773 -2.0240 16.5487 0.6713 -64.0784 7.4919 -28.6497 1.1024 -0.5335 -125.9845 16.6120 50.2285 44.8590 -14.7823 11.3348 15.6707 -59.8525 1.7387 2.1355 -1.2350 16.8879 12.5631 67.1894 0.6055 -12.7665 2.7524 1.9999 108.1364 4.6856 32.6270 -35.0949 15.4030 7.0374 -15.8106 50.2027 -3.7033 -5.3925 7.5046 -18.6889 4.4902 -0.5522 53.6901 -1.0950 -14.3920 3.0465 -11.7449 2.4090 -21.5456 -2.7139 -8.5578 -30.3439 -11.2234 0.2725 24.8923 0.3773 8.9704 -3.0249 -2.4317 -1.4427 -0.2969 0.9623
-5.8065 97.8121 2.8966 1.9874 7.9065 -0.0120 0.3801 6.7160 -0.0996 -0.4313 -1.5962 0.5598 -0.9867 18.8510 -1.6385 11.8068 19.0803 -1.6461 -1.8348 -3.9147 -5.7699 4.2459 -9.2427 -8.7928 -0.1155 -0.0633 0.1522 0.6046 -10.5316 -3.7437 -0.8257 -10.5375 4.0783 -1.0231 16.4471 1.6951 -64.3301 6.0806 -29.7494 0.6511 -0.4706 -126.1668 15.7397 50.8182 43.3686 -14.6602 11.1777 15.7223 -59.7998 1.7016 2.2361 -2.1647 17.1155 12.7739 65.4177 -0.0640 -11.7086 2.4355 2.7183 108.8161 7.5429 33.4979 -34.8523 15.3094 7.1495 -15.7114 50.4270 -3.5204 -5.4112 10.1992 -24.8671 3.8591 -0.8299 61.7256 -1.4326 -18.8365 6.5762 -16.3958 2.0237 -12.7284 -2.3167 -7.4082 -30.0147 -12.9715 0.2608 25.3837 0.3455 9.6678 -3.6384 -1.4798 -1.4406 -0.2124 1.0021
-5.8976 98.0061 4.3133 1.9472 8.1810 -0.0234 0.4272 7.1464 0.1367 -0.5258 -1.3389 0.7457 -0.6755 19.5361 -1.2162 12.0929 20.3874 -1.9884 -1.6157 -3.8964 -5.4330 4.3126 -8.3578 -8.2283 -0.1174 -0.0759 0.1305 0.6020 -10.6229 -3.7813 -0.8248 -10.6128 4.0681 -0.6871 16.3668 2.3089 -63.9213 5.1502 -30.3724 0.5194 -0.5116 -126.1708 14.9489 51.3645 41.9354 -14.7419 11.0315 15.7402 -59.7708 1.7003 2.1565 -2.8165 17.2442 13.0022 63.5893 -1.5215 -10.9472 2.1177 3.0324 109.0388 8.5662 34.5084 -34.5857 15.2934 7.2832 -15.6965 50.4724 -3.4691 -5.5916 11.6976 -29.8014 2.6543 -1.0500 65.6937 -1.5745 -18.3833 5.1466 -14.0379 1.8657 -8.3440 -2.1902 -7.2435 -29.5438 -13.7235 0.2257 25.5917 0.3317 10.1432 -4.0389 -0.9638 -1.4377 -0.1483 1.0197
-5.7872 98.2542 5.7612 2.5027 8.4262 0.1280 0.1614 7.4814 0.2457 -0.6727 -1.0800 0.9168 -0.8105 20.2419 -0.9477 12.2725 21.1293 -2.0904 -1.5016 -3.8434 -5.1123 4.5060 -7.6591 -7.8433 -0.1038 -0.0869 0.1005 0.6101 -10.6552 -3.8088 -0.8043 -10.6382 4.0282 -0.7558 16.3369 2.6165 -63.0500 4.4926 -30.6339 0.6678 -0.6399 -126.0062 15.2160 52.0951 41.4629 -14.9172 10.9138 15.6693 -59.7095 1.6852 1.8923 -3.3988 17.2253 13.3563 62.1856 -3.3555 -10.7005 1.8480 3.0285 108.9235 8.3289 35.2873 -34.4045 15.2360 7.3446 -15.7304 50.3532 -3.4532 -5.8091 12.0272 -33.9657 1.2794 -1.0136 65.4131 -1.3998 -15.7170 2.9371 -8.1887 1.8122 -6.7759 -2.1610 -8.0978 -29.0732 -13.4873 0.2073 25.7464 0.3519 10.4837 -4.3758 -1.1563 -1.4383 0.0841 1.0229
-5.4950 98.3880 7.2747 3.2400 8.4676 0.2950 -0.1833 7.7889 0.2385 -0.8138 -0.8215 1.1328 -1.2056 20.8625 -0.7565 12.1066 21.3252 -1.9890 -1.4504 -3.7722 -4.8062 4.8356 -7.2666 -7.7288 -0.1013 -0.0953 0.0898 0.6073 -10.6446 -3.8090 -0.7970 -10.6225 4.0063 -1.2221 16.3809 2.8394 -62.0978 4.1650 -30.6221 1.0553 -0.8278 -125.9315 16.7195 53.0311 42.2207 -15.1383 10.8256 15.5784 -59.6018 1.5833 1.7225 -4.0023 17.2476 13.9080 61.3376 -5.0885 -11.1023 1.6026 2.9374 108.8650 7.8986 35.8892 -34.4153 15.1497 7.3500 -15.7418 50.1659 -3.3957 -5.9075 11.8624 -36.6072 -0.6043 -0.7500 60.6009 -1.0647 -13.4374 0.6439 -2.6531 1.7873 -5.7428 -2.1724 -9.5341 -28.3628 -12.3762 0.2103 26.1408 0.4198 10.7286 -4.9516 -2.0372 -1.4468 0.3449 1.0204
-5.0865 98.2936 8.8826 3.6952 8.2117 0.3685 -0.4034 8.0670 0.2028 -0.8696 -0.6410 1.3307 -1.6539 21.3965 -0.5588 11.5090 21.1672 -1.7058 -1.3418 -3.7075 -4.5601 5.1493 -7.0620 -7.7695 -0.0946 -0.0888 0.0805 0.6110 -10.6596 -3.8167 -0.7894 -10.6328 3.9955 -2.0068 16.6475 3.0650 -61.4580 4.1863 -30.4098 1.5616 -0.8740 -126.0353 19.0611 54.0245 43.7902 -15.3568 10.8231 15.5089 -59.6910 1.5105 1.5530 -4.5331 17.5073 14.5459 60.6784 -6.4068 -12.1147 1.4237 2.7468 109.3998 7.8543 36.3370 -34.3817 15.0946 7.3190 -15.7092 49.9323 -3.4309 -5.8719 11.9348 -37.2938 -2.9647 -0.5484 52.0094 -0.8693 -11.3477 -1.8520 1.5945 1.7653 -5.0134 -2.2069 -10.9046 -27.3151 -10.8266 0.2190 27.1052 0.4995 10.9504 -6.1028 -3.2397 -1.4597 0.5503 1.0480
-4.5024 97.7909 10.7950 3.6408 7.6197 0.5420 -0.3493 8.1933 0.1100 -0.8706 -0.5927 1.5211 -2.0408 21.7672 -0.3148 10.7014 21.1095 -1.2995 -1.2043 -3.6799 -4.4480 5.4053 -7.0206 -7.8521 -0.0840 -0.0653 0.0674 0.6289 -10.6708 -3.8321 -0.7887 -10.6336 3.9839 -2.7224 17.0275 3.3476 -61.2887 4.5922 -30.4273 1.9537 -0.7429 -126.0457 20.9710 54.4719 45.1930 -15.4507 10.8947 15.5412 -59.8500 1.5436 1.5042 -4.7857 18.0279 14.9163 59.8394 -7.2242 -13.3531 1.2775 2.4904 110.4167 8.2458 36.1276 -33.9336 15.0935 7.2604 -15.6442 49.6417 -3.5421 -5.8334 12.5716 -35.7525 -5.4462 -0.4394 39.4872 -0.8153 -10.7382 -3.4745 3.3878 1.7414 -4.5080 -2.1601 -11.7600 -25.9622 -9.7773 0.2544 28.8316 0.6076 11.3123 -8.1427 -4.5034 -1.4702 0.6752 1.1275
-3.8470 96.8480 13.2179 3.0551 6.6994 0.7754 -0.0349 8.0707 0.0244 -0.8318 -0.7216 1.6682 -2.3412 21.9952 -0.0869 9.7697 21.4497 -0.7964 -0.9110 -3.6902 -4.4681 5.5442 -7.0622 -7.8443 -0.0760 -0.0501 0.0551 0.6644 -10.6626 -3.8499 -0.8103 -10.6343 3.9763 -3.0998 17.5086 3.7061 -61.5583 5.1970 -30.6076 1.9601 -0.5446 -125.6665 21.4722 54.1156 45.4432 -15.4339 10.9466 15.6273 -59.8026 1.6056 1.4874 -4.9915 18.7774 14.9844 58.8978 -7.6481 -14.5351 1.0892 2.0291 111.3628 8.6861 34.9597 -32.7403 15.0336 7.2115 -15.6132 49.4036 -3.6549 -5.6763 13.6983 -32.3606 -7.6983 -0.3353 24.8515 -0.8429 -14.0251 -3.8040 2.6878 1.7682 -4.2266 -2.1096 -12.0672 -24.4027 -9.6187 0.2558 31.3782 0.6079 11.9968 -11.0818 -5.4459 -1.4700 0.8005 1.1652
-3.0917 95.6929 15.8551 2.4421 5.5494 1.0517 0.0348 7.7230 0.0914 -0.7344 -0.9782 1.7446 -2.5866 22.2335 0.0155 8.9045 22.3098 -0.6560 -0.6374 -3.6969 -4.1525 5.8516 -7.1694 -7.7663 -0.0736 -0.0505 0.0394 0.6867 -10.6931 -3.8728 -0.8288 -10.6726 3.9689 -3.2644 17.8682 3.9340 -62.0189 5.7379 -30.8489 1.6796 -0.6306 -125.0492 21.7772 54.0863 45.9316 -15.5302 11.0024 15.8003 -59.8257 1.6206 1.5392 -4.8630 19.4371 14.9614 57.7354 -8.2814 -16.2430 0.8626 1.4405 112.1175 9.2703 33.3370 -30.8345 15.0849 7.2654 -15.6600 49.4701 -3.5806 -5.3971 14.5657 -30.0645 -9.8295 -0.2462 16.2741 -1.0002 -20.0642 -3.7676 1.7180 1.7383 -3.9486 -2.2474 -12.5324 -22.8192 -10.0796 0.2885 34.4909 0.6125 12.8350 -14.5332 -5.7961 -1.4641 1.0608 1.0700
